<svg width="0" height="0" class="hidden">
  <symbol version="1.1" xmlns="http://www.w3.org/2000/svg" xmlns:xlink="http://www.w3.org/1999/xlink" viewBox="-0.5 0 48 48" id="google-color-svgrepo-com">
    <title>Google-color</title>
    <desc>Created with Sketch.</desc>
    <defs></defs>
    <g id="Icons" stroke="none" stroke-width="1" fill="none" fill-rule="evenodd">
      <g id="Color-" transform="translate(-401.000000, -860.000000)">
        <g id="Google" transform="translate(401.000000, 860.000000)">
          <path d="M9.82727273,24 C9.82727273,22.4757333 10.0804318,21.0144 10.5322727,19.6437333 L2.62345455,13.6042667 C1.08206818,16.7338667 0.213636364,20.2602667 0.213636364,24 C0.213636364,27.7365333 1.081,31.2608 2.62025,34.3882667 L10.5247955,28.3370667 C10.0772273,26.9728 9.82727273,25.5168 9.82727273,24" id="Fill-1" fill="#FBBC05"></path>
          <path d="M23.7136364,10.1333333 C27.025,10.1333333 30.0159091,11.3066667 32.3659091,13.2266667 L39.2022727,6.4 C35.0363636,2.77333333 29.6954545,0.533333333 23.7136364,0.533333333 C14.4268636,0.533333333 6.44540909,5.84426667 2.62345455,13.6042667 L10.5322727,19.6437333 C12.3545909,14.112 17.5491591,10.1333333 23.7136364,10.1333333" id="Fill-2" fill="#EB4335"></path>
          <path d="M23.7136364,37.8666667 C17.5491591,37.8666667 12.3545909,33.888 10.5322727,28.3562667 L2.62345455,34.3946667 C6.44540909,42.1557333 14.4268636,47.4666667 23.7136364,47.4666667 C29.4455,47.4666667 34.9177955,45.4314667 39.0249545,41.6181333 L31.5177727,35.8144 C29.3995682,37.1488 26.7323182,37.8666667 23.7136364,37.8666667" id="Fill-3" fill="#34A853"></path>
          <path d="M46.1454545,24 C46.1454545,22.6133333 45.9318182,21.12 45.6113636,19.7333333 L23.7136364,19.7333333 L23.7136364,28.8 L36.3181818,28.8 C35.6879545,31.8912 33.9724545,34.2677333 31.5177727,35.8144 L39.0249545,41.6181333 C43.3393409,37.6138667 46.1454545,31.6490667 46.1454545,24" id="Fill-4" fill="#4285F4"></path>
        </g>
      </g>
    </g>
  </symbol>
  <symbol xmlns="http://www.w3.org/2000/svg" fill="none" viewBox="0 0 16 16" id="facebook-svgrepo-com">
    <path fill="#1877F2" d="M15 8a7 7 0 00-7-7 7 7 0 00-1.094 13.915v-4.892H5.13V8h1.777V6.458c0-1.754 1.045-2.724 2.644-2.724.766 0 1.567.137 1.567.137v1.723h-.883c-.87 0-1.14.54-1.14 1.093V8h1.941l-.31 2.023H9.094v4.892A7.001 7.001 0 0015 8z"></path>
    <path fill="#ffffff" d="M10.725 10.023L11.035 8H9.094V6.687c0-.553.27-1.093 1.14-1.093h.883V3.87s-.801-.137-1.567-.137c-1.6 0-2.644.97-2.644 2.724V8H5.13v2.023h1.777v4.892a7.037 7.037 0 002.188 0v-4.892h1.63z"></path>
  </symbol>
  <symbol xmlns="http://www.w3.org/2000/svg" viewBox="0 0 512 512" id="eye-off-sharp-svgrepo-com">
    <title>ionicons-v5-i</title>
    <rect x="240.44" y="0.03" width="31.11" height="511.95" transform="translate(-106.04 256) rotate(-45)"></rect>
    <path d="M259.34,192.09l60.57,60.57A64.07,64.07,0,0,0,259.34,192.09Z"></path>
    <path d="M252.66,319.91l-60.57-60.57A64.07,64.07,0,0,0,252.66,319.91Z"></path>
    <path d="M256,352a96,96,0,0,1-92.6-121.34L94.33,161.58C66.12,187.42,39.24,221.14,16,256c26.42,44,62.56,89.24,100.2,115.18C159.38,400.92,206.33,416,255.76,416A233.47,233.47,0,0,0,335,402.2l-53.61-53.6A95.84,95.84,0,0,1,256,352Z"></path>
    <path d="M256,160a96,96,0,0,1,92.6,121.34L419.26,352c29.15-26.25,56.07-61.56,76.74-96-26.38-43.43-62.9-88.56-101.18-114.82C351.1,111.2,304.31,96,255.76,96a222.92,222.92,0,0,0-78.21,14.29l53.11,53.11A95.84,95.84,0,0,1,256,160Z"></path>
  </symbol>

  <symbol  xmlns="http://www.w3.org/2000/svg" viewBox="0 0 512 512" id="eye-sharp-svgrepo-com">
    <title>ionicons-v5-i</title>
    <circle cx="256" cy="256" r="64"></circle>
    <path d="M394.82,141.18C351.1,111.2,304.31,96,255.76,96c-43.69,0-86.28,13-126.59,38.48C88.52,160.23,48.67,207,16,256c26.42,44,62.56,89.24,100.2,115.18C159.38,400.92,206.33,416,255.76,416c49,0,95.85-15.07,139.3-44.79C433.31,345,469.71,299.82,496,256,469.62,212.57,433.1,167.44,394.82,141.18ZM256,352a96,96,0,1,1,96-96A96.11,96.11,0,0,1,256,352Z"></path>
  </symbol>
</svg>
