<svg width="0" height="0" class="hidden">
  <symbol fill="none" xmlns="http://www.w3.org/2000/svg" viewBox="0 0 55 63" id="educational">
    <path fill-rule="evenodd" clip-rule="evenodd" d="M8.78819 0.0187635L36.5181 0.00469082V10.8078L8.78819 10.8219C7.53572 10.8233 6.31568 10.4238 5.3067 9.68197L0.811723 6.36552C0.664244 6.25647 0.544401 6.11437 0.461819 5.95062C0.379237 5.78687 0.336219 5.60604 0.336219 5.42265C0.336219 5.23927 0.379237 5.05844 0.461819 4.89469C0.544401 4.73094 0.664244 4.58883 0.811723 4.47979L5.31139 1.15865C6.31722 0.417021 7.53371 0.0160063 8.7835 0.0140724L8.78819 0.0187635ZM47.9339 10.7984L42.3832 10.8031V0H47.9526C50.9274 0.0469088 53.203 2.68787 53.203 5.39451C53.203 8.10583 50.9274 10.7515 47.9526 10.7984H47.9339ZM20.1054 21.6343C21.6772 22.2629 23.0144 22.9525 24.1734 23.6373V62.9844C22.3854 61.6411 20.4295 60.5372 18.3553 59.7008C14.9066 58.3217 9.93305 57.1818 2.34602 57.1818C1.72382 57.1818 1.1271 56.9347 0.687133 56.4948C0.247169 56.055 0 55.4584 0 54.8363V21.1183C0 20.4963 0.247169 19.8997 0.687133 19.4598C1.1271 19.02 1.72382 18.7729 2.34602 18.7729C10.4163 18.7729 15.9999 19.9878 20.1054 21.6343ZM35.8519 59.7008C33.3182 60.7187 31.5399 61.8867 30.0337 62.9797V23.6373C31.1927 22.9525 32.5346 22.2629 34.1064 21.6343C38.212 19.9878 43.7955 18.7729 51.8658 18.7729C52.488 18.7729 53.0847 19.02 53.5247 19.4598C53.9646 19.8997 54.2118 20.4963 54.2118 21.1183V54.8363C54.2118 55.4584 53.9646 56.055 53.5247 56.4948C53.0847 56.9347 52.488 57.1818 51.8658 57.1818C44.2788 57.1818 39.3052 58.317 35.8519 59.7008Z" fill="#E963FF"></path>
  </symbol>
  <symbol fill="none" xmlns="http://www.w3.org/2000/svg" viewBox="0 0 82 75" id="talks">
    <path d="M40.9962 0C63.5296 0 81.7934 14.2314 81.7934 31.7915C81.7934 49.3477 63.5296 63.579 41.0001 63.579C38.7567 63.5801 36.5156 63.4374 34.2906 63.1518L17.1651 74.3497C15.2187 75.379 14.5311 75.2663 15.3314 72.7456L18.7969 58.4598C7.60786 52.789 0.206787 42.9622 0.206787 31.7915C0.206787 14.2353 18.4666 0 41.0001 0M63.9531 31.306L69.6642 25.775C69.9937 25.4328 70.1776 24.9761 70.177 24.5012C70.1764 24.0262 69.9915 23.5699 69.6611 23.2286C69.3307 22.8872 68.8808 22.6874 68.4059 22.6711C67.9311 22.6549 67.4685 22.8236 67.1156 23.1415L59.6251 30.3893V24.4C59.6251 23.9138 59.4319 23.4475 59.088 23.1037C58.7441 22.7599 58.2777 22.5667 57.7914 22.5667C57.305 22.5667 56.8386 22.7599 56.4947 23.1037C56.1508 23.4475 55.9576 23.9138 55.9576 24.4V34.3317C55.8891 34.615 55.8891 34.9106 55.9576 35.194V40.7832C55.9576 41.2694 56.1508 41.7357 56.4947 42.0795C56.8386 42.4233 57.305 42.6165 57.7914 42.6165C58.2777 42.6165 58.7441 42.4233 59.088 42.0795C59.4319 41.7357 59.6251 41.2694 59.6251 40.7832V35.4891L61.2841 33.885L66.832 41.7814C66.9705 41.9785 67.1465 42.1465 67.3499 42.2756C67.5534 42.4048 67.7802 42.4926 68.0176 42.5341C68.255 42.5755 68.4982 42.5699 68.7334 42.5174C68.9686 42.4649 69.1912 42.3666 69.3883 42.2281C69.5855 42.0896 69.7535 41.9136 69.8827 41.7103C70.0118 41.5069 70.0997 41.28 70.1412 41.0427C70.1827 40.8054 70.177 40.5622 70.1245 40.3271C70.072 40.092 69.9736 39.8695 69.8351 39.6723L63.9531 31.306ZM52.4611 38.779H46.7889V24.4583C46.7671 23.9871 46.5647 23.5425 46.2235 23.2168C45.8824 22.8911 45.4288 22.7093 44.957 22.7093C44.4853 22.7093 44.0317 22.8911 43.6906 23.2168C43.3494 23.5425 43.1469 23.9871 43.1252 24.4583V40.6123C43.1252 41.6222 43.9411 42.4456 44.9551 42.4456H52.4611C52.9474 42.4456 53.4138 42.2524 53.7577 41.9086C54.1016 41.5648 54.2948 41.0985 54.2948 40.6123C54.2948 40.1261 54.1016 39.6598 53.7577 39.3159C53.4138 38.9721 52.9474 38.779 52.4611 38.779ZM29.7062 34.5414L32.4102 27.9074L34.8889 34.5375L29.7062 34.5414ZM39.5082 36.433L39.516 36.3708C39.5151 35.909 39.3387 35.4647 39.0226 35.1279L34.9588 24.2524C34.7884 23.7341 34.4639 23.2802 34.0287 22.9512C33.5934 22.6222 33.0681 22.4339 32.5229 22.4113C31.9737 22.4089 31.4367 22.5737 30.9836 22.8839C30.5304 23.194 30.1824 23.6348 29.9859 24.1475L23.5289 39.9753C23.345 40.4255 23.3475 40.9302 23.5358 41.3786C23.7241 41.8269 24.0829 42.1821 24.5332 42.366C24.9835 42.5498 25.4884 42.5474 25.9368 42.3591C26.3853 42.1708 26.7405 41.8121 26.9245 41.3619L28.2143 38.2041H36.2564L37.4142 41.3114C37.4931 41.5437 37.6179 41.7577 37.7812 41.9409C37.9444 42.1241 38.1427 42.2726 38.3644 42.3778C38.5861 42.4829 38.8267 42.5425 39.0718 42.553C39.317 42.5635 39.5618 42.5247 39.7917 42.4389C40.0215 42.3531 40.2319 42.222 40.4102 42.0535C40.5885 41.885 40.7311 41.6824 40.8297 41.4577C40.9282 41.2331 40.9807 40.9909 40.9839 40.7456C40.9872 40.5003 40.9411 40.2569 40.8486 40.0297L39.5082 36.433ZM26.5981 24.4777C26.5981 23.9921 26.4054 23.5264 26.0624 23.1827C25.7193 22.839 25.2539 22.6454 24.7682 22.6444H12.1612C11.6748 22.6444 11.2084 22.8375 10.8645 23.1813C10.5206 23.5252 10.3274 23.9915 10.3274 24.4777C10.3274 24.9639 10.5206 25.4302 10.8645 25.774C11.2084 26.1178 11.6748 26.311 12.1612 26.311H16.6679V40.822C16.6679 41.3083 16.8611 41.7746 17.205 42.1184C17.5488 42.4622 18.0153 42.6553 18.5016 42.6553C18.988 42.6553 19.4544 42.4622 19.7983 42.1184C20.1422 41.7746 20.3354 41.3083 20.3354 40.822V26.311H24.7644C25.2507 26.311 25.7171 26.1178 26.061 25.774C26.4049 25.4302 26.5981 24.9639 26.5981 24.4777Z" fill="#E963FF"></path>
  </symbol>
  <symbol fill="none" xmlns="http://www.w3.org/2000/svg" viewBox="0 0 71 81" id="entertainment">
    <path d="M21.8855 39.7621C31.7637 39.7621 39.771 31.7568 39.771 21.8811C39.771 12.0054 31.7637 4 21.8855 4C12.0073 4 4 12.0054 4 21.8811C4 31.7568 12.0073 39.7621 21.8855 39.7621Z" fill="#E963FF" stroke="#E963FF" stroke-width="7.1542" stroke-linejoin="round"></path>
    <path d="M39.771 24.0303C39.796 24.0553 48.2183 34.6445 65.036 55.7942C65.3209 56.137 65.4674 56.5738 65.4469 57.0191C65.4264 57.4643 65.2403 57.8858 64.9251 58.201L57.6207 65.5036C57.3054 65.8187 56.8838 66.0047 56.4385 66.0253C55.9932 66.0458 55.5562 65.8993 55.2133 65.6145L25.1442 39.762M40.6116 40.6024L45.6714 45.661" stroke="#E963FF" stroke-width="7.1542" stroke-linecap="round" stroke-linejoin="round"></path>
    <path d="M23.674 75.678C27.1027 71.2114 31.27 68.978 36.176 68.978C43.5377 68.978 52.2247 78.2225 59.6346 76.9512C67.0464 75.678 69.1676 68.3718 64.6068 64.3271" stroke="#E963FF" stroke-width="7.1542" stroke-linecap="round" stroke-linejoin="round"></path>
  </symbol>
  <symbol fill="none" xmlns="http://www.w3.org/2000/svg" viewBox="0 0 69 62" id="news">
    <path fill-rule="evenodd" clip-rule="evenodd" d="M55.1111 3.44359V13.7744H65.4444C66.358 13.7744 67.2341 14.1372 67.88 14.783C68.526 15.4288 68.8889 16.3047 68.8889 17.218V51.6539C68.8889 54.3938 67.8002 57.0214 65.8623 58.9588C63.9244 60.8962 61.2961 61.9846 58.5555 61.9846H10.3333C7.59276 61.9846 4.96444 60.8962 3.02656 58.9588C1.08869 57.0214 0 54.3938 0 51.6539V3.44359C0 2.53029 0.362896 1.6544 1.00885 1.0086C1.65481 0.362806 2.53092 0 3.44444 0H51.6667C52.5802 0 53.4563 0.362806 54.1023 1.0086C54.7482 1.6544 55.1111 2.53029 55.1111 3.44359ZM62 51.6539C62 52.5672 61.6371 53.4431 60.9911 54.0889C60.3452 54.7346 59.4691 55.0975 58.5555 55.0975C57.642 55.0975 56.7659 54.7346 56.12 54.0889C55.474 53.4431 55.1111 52.5672 55.1111 51.6539V20.6615H62V51.6539ZM13.7778 17.218C13.7778 16.3047 14.1407 15.4288 14.7866 14.783C15.4326 14.1372 16.3087 13.7744 17.2222 13.7744H37.8889C38.8024 13.7744 39.6785 14.1372 40.3245 14.783C40.9704 15.4288 41.3333 16.3047 41.3333 17.218C41.3333 18.1313 40.9704 19.0071 40.3245 19.6529C39.6785 20.2987 38.8024 20.6615 37.8889 20.6615H17.2222C16.3087 20.6615 15.4326 20.2987 14.7866 19.6529C14.1407 19.0071 13.7778 18.1313 13.7778 17.218ZM20.6667 30.9923C20.6667 30.079 21.0296 29.2031 21.6755 28.5573C22.3215 27.9115 23.1976 27.5487 24.1111 27.5487H37.8889C38.8024 27.5487 39.6785 27.9115 40.3245 28.5573C40.9704 29.2031 41.3333 30.079 41.3333 30.9923C41.3333 31.9056 40.9704 32.7815 40.3245 33.4273C39.6785 34.0731 38.8024 34.4359 37.8889 34.4359H24.1111C23.1976 34.4359 22.3215 34.0731 21.6755 33.4273C21.0296 32.7815 20.6667 31.9056 20.6667 30.9923Z" fill="#E963FF"></path>
  </symbol>
</svg>